<svg width="30" height="30" viewBox="0 0 30 30" fill="none" xmlns="http://www.w3.org/2000/svg">
<rect width="30" height="30" rx="4" fill="#FF6542"/>
<path d="M4 6C4 4.89543 4.89543 4 6 4H17.588C18.6926 4 19.588 4.89543 19.588 6V8.03137C19.588 9.13594 18.6926 10.0314 17.588 10.0314H6C4.89543 10.0314 4 9.13594 4 8.03137V6ZM10.412 13.9838C10.412 12.8793 11.3074 11.9838 12.412 11.9838H24C25.1046 11.9838 26 12.8793 26 13.9838V16.0152C26 17.1198 25.1046 18.0152 24 18.0152H12.412C11.3074 18.0152 10.412 17.1198 10.412 16.0152V13.9838ZM19.6858 21.9686C19.6858 20.8641 20.5813 19.9686 21.6858 19.9686H24C25.1046 19.9686 26 20.8641 26 21.9686V24C26 25.1046 25.1046 26 24 26H21.6858C20.5813 26 19.6858 25.1046 19.6858 24V21.9686Z" fill="white"/>
</svg>
