<svg width="119" height="30" viewBox="0 0 119 30" fill="none" xmlns="http://www.w3.org/2000/svg">
<path d="M45.6 9.5H42.28L41.68 12H38L41.68 0.599999H46.38L49.9 12H46.2L45.6 9.5ZM43.92 3.06L42.74 7.28H45.12L44 3.06H43.92ZM50.9145 0.599999H54.5145V12H50.9145V0.599999Z" fill="#FF6542"/>
<path d="M66.5183 3.68C66.5183 3.96 66.6583 4.18 66.9383 4.34C67.2316 4.5 67.6849 4.67333 68.2983 4.86C69.0316 5.1 69.6316 5.33333 70.0983 5.56C70.5783 5.78667 70.9916 6.14 71.3383 6.62C71.6983 7.1 71.8783 7.72667 71.8783 8.5C71.8783 10.98 70.2649 12.22 67.0383 12.22C66.5049 12.22 65.8516 12.1733 65.0783 12.08C64.3183 11.9867 63.6249 11.8667 62.9983 11.72C63.0249 11.44 63.0783 11.0333 63.1583 10.5C63.2516 9.95333 63.3383 9.54667 63.4183 9.28C63.8849 9.34667 64.5849 9.42667 65.5183 9.52C66.4649 9.61333 67.1783 9.66 67.6583 9.66C67.9383 9.66 68.1049 9.64 68.1583 9.6C68.2383 9.54667 68.2983 9.46 68.3383 9.34C68.3916 9.20667 68.4183 9.09333 68.4183 9C68.4183 8.73333 68.2916 8.53333 68.0383 8.4C67.7849 8.25333 67.3516 8.08 66.7383 7.88C66.0049 7.65333 65.3983 7.42 64.9183 7.18C64.4383 6.94 64.0183 6.56667 63.6583 6.06C63.2983 5.55333 63.1183 4.88667 63.1183 4.06C63.1183 3.47333 63.2516 2.9 63.5183 2.34C63.7849 1.76667 64.0583 1.38 64.3383 1.18C64.5516 1.03333 64.9916 0.893332 65.6583 0.759999C66.3249 0.626666 66.9516 0.559999 67.5383 0.559999C69.0316 0.559999 70.2516 0.7 71.1983 0.98C71.1849 1.24667 71.1383 1.61333 71.0583 2.08C70.9916 2.54667 70.9183 2.97333 70.8383 3.36L70.3783 3.34C68.6449 3.22 67.5383 3.16 67.0583 3.16C66.8583 3.16 66.7449 3.16667 66.7183 3.18C66.6649 3.20667 66.6183 3.26667 66.5783 3.36C66.5383 3.45333 66.5183 3.56 66.5183 3.68ZM79.2769 12H75.6769V3.1H72.4569V0.599999H82.4969V3.1H79.2769V12ZM94.3084 0.599999V6.98C94.3084 8.3 94.1618 9.33333 93.8684 10.08C93.5884 10.8133 93.0551 11.3533 92.2684 11.7C91.4818 12.0467 90.3351 12.22 88.8284 12.22C87.7218 12.22 86.7884 12.1067 86.0284 11.88C85.2684 11.64 84.6618 11.1933 84.2084 10.54C83.7684 9.88667 83.5484 8.96667 83.5484 7.78V0.599999H87.1484V7.02C87.1484 7.72667 87.1818 8.26667 87.2484 8.64C87.3284 9 87.5018 9.28 87.7684 9.48C88.0351 9.66667 88.4418 9.76 88.9884 9.76C89.3218 9.76 89.6351 9.72667 89.9284 9.66C90.2218 9.59333 90.4218 9.49333 90.5284 9.36C90.6484 9.2 90.7084 8.62 90.7084 7.62V0.599999H94.3084ZM100.207 0.599999C101.767 0.599999 103.04 0.746666 104.027 1.04C105.027 1.33333 105.8 1.88667 106.347 2.7C106.907 3.51333 107.187 4.68 107.187 6.2C107.187 7.82667 106.894 9.06667 106.307 9.92C105.72 10.76 104.934 11.32 103.947 11.6C102.96 11.8667 101.714 12 100.207 12H96.207V0.599999H100.207ZM102.887 9.28C103.047 9.12 103.16 8.70667 103.227 8.04C103.294 7.37333 103.327 6.76 103.327 6.2C103.327 5.49333 103.274 4.93333 103.167 4.52C103.074 4.09333 102.9 3.75333 102.647 3.5C102.247 3.06 101.56 2.84 100.587 2.84C100.414 2.84 100.154 2.85333 99.807 2.88V9.52C100.034 9.54667 100.387 9.56 100.867 9.56C101.36 9.56 101.794 9.54 102.167 9.5C102.554 9.44667 102.794 9.37333 102.887 9.28ZM114.343 8.36V12H110.743V8.4L106.903 0.599999H110.563L112.083 4.3C112.243 4.67333 112.39 5.06667 112.523 5.48H112.563C112.71 5.02667 112.856 4.62 113.003 4.26L114.503 0.599999H118.143L114.343 8.36Z" fill="#FF6542"/>
<path d="M43.6 18.54C44.68 18.54 45.5933 18.64 46.34 18.84C47.0867 19.04 47.68 19.4267 48.12 20C48.5733 20.56 48.8 21.3667 48.8 22.42C48.8 22.8867 48.7267 23.3667 48.58 23.86C48.4467 24.34 48.2733 24.76 48.06 25.12C47.86 25.48 47.68 25.7133 47.52 25.82C47.3333 25.9533 46.92 26.06 46.28 26.14C45.64 26.2067 44.8867 26.24 44.02 26.24C43.7133 26.24 43.24 26.2267 42.6 26.2V30H39V18.6C40.4 18.56 41.9333 18.54 43.6 18.54ZM45.1 23.68C45.2333 23.5067 45.3 23.16 45.3 22.64C45.3 21.96 45.1533 21.48 44.86 21.2C44.58 20.92 44.0867 20.78 43.38 20.78C43.14 20.78 42.88 20.8 42.6 20.84V23.88C42.7333 23.8933 42.9933 23.9 43.38 23.9C44.4067 23.9 44.98 23.8267 45.1 23.68ZM50.0342 18.6H53.6342V27.36H58.2942V30H50.0342V18.6ZM66.1859 27.5H62.8659L62.2659 30H58.5859L62.2659 18.6H66.9659L70.4859 30H66.7859L66.1859 27.5ZM64.5059 21.06L63.3259 25.28H65.7059L64.5859 21.06H64.5059ZM74.8205 25.4V30H71.4805V18.6H74.8605L77.8805 23.2C78.3338 23.88 78.6805 24.4533 78.9205 24.92H78.9805V23V18.6H82.3005V30H78.9005L75.8005 25.2L74.9005 23.84H74.8405L74.8205 25.4ZM87.6134 25.4V30H84.2734V18.6H87.6534L90.6734 23.2C91.1268 23.88 91.4734 24.4533 91.7134 24.92H91.7734V23V18.6H95.0934V30H91.6934L88.5934 25.2L87.6934 23.84H87.6334L87.6134 25.4ZM96.9664 18.6H105.266V21H100.566V23.08H104.526V25.24H100.566V27.56H105.246V30H96.9664V18.6ZM117.173 30H113.393L112.713 27.12C112.686 27.0133 112.64 26.8333 112.573 26.58C112.52 26.3133 112.453 26.12 112.373 26C112.293 25.8667 112.18 25.78 112.033 25.74C111.66 25.7533 111.113 25.76 110.393 25.76V30H106.793V18.7C108.406 18.58 109.913 18.52 111.313 18.52C112.58 18.52 113.606 18.6267 114.393 18.84C115.18 19.04 115.766 19.3933 116.153 19.9C116.553 20.3933 116.753 21.0733 116.753 21.94C116.753 22.7533 116.566 23.3933 116.193 23.86C115.82 24.3133 115.22 24.5867 114.393 24.68V24.8C114.86 24.84 115.246 24.9933 115.553 25.26C115.873 25.5133 116.086 25.84 116.193 26.24L117.173 30ZM110.393 23.5C110.513 23.5133 110.746 23.52 111.093 23.52C112.12 23.52 112.72 23.4333 112.893 23.26C113.053 23.1 113.133 22.7267 113.133 22.14C113.133 21.5933 112.986 21.22 112.693 21.02C112.413 20.82 111.946 20.72 111.293 20.72C111.146 20.72 110.846 20.7333 110.393 20.76V23.5Z" fill="#FF6542"/>
<rect width="30" height="30" rx="4" fill="#FF6542"/>
<path d="M4 6C4 4.89543 4.89543 4 6 4H17.588C18.6926 4 19.588 4.89543 19.588 6V8.03137C19.588 9.13594 18.6926 10.0314 17.588 10.0314H6C4.89543 10.0314 4 9.13594 4 8.03137V6ZM10.412 13.9838C10.412 12.8793 11.3074 11.9838 12.412 11.9838H24C25.1046 11.9838 26 12.8793 26 13.9838V16.0152C26 17.1198 25.1046 18.0152 24 18.0152H12.412C11.3074 18.0152 10.412 17.1198 10.412 16.0152V13.9838ZM19.6858 21.9686C19.6858 20.8641 20.5813 19.9686 21.6858 19.9686H24C25.1046 19.9686 26 20.8641 26 21.9686V24C26 25.1046 25.1046 26 24 26H21.6858C20.5813 26 19.6858 25.1046 19.6858 24V21.9686Z" fill="white"/>
</svg>
