<svg id="Layer_1" data-name="Layer 1" xmlns="http://www.w3.org/2000/svg" viewBox="0 0 675.67 631.95"><path d="M675.67,526.6a1.19,1.19,0,0,1-1.18,1.19H1.19a1.19,1.19,0,1,1,0-2.38H674.48a1.18,1.18,0,0,1,1.19,1.18Z" transform="translate(0 0)" style="fill:#ccc"/><circle cx="279" cy="260.86" r="215" style="fill:#e6e6e6"/><path d="M464,260.87a184.78,184.78,0,0,1-74.67,148.51c-1.55,1.16-3.13,2.29-4.72,3.39a185,185,0,0,1-211.22,0c-1.59-1.1-3.17-2.23-4.72-3.39-82-60.95-99.11-176.84-38.16-258.86a184.54,184.54,0,0,1,38.16-38.16c1.55-1.16,3.13-2.29,4.72-3.39a185,185,0,0,1,211.22,0c1.59,1.1,3.17,2.23,4.72,3.39A184.75,184.75,0,0,1,464,260.87Z" transform="translate(0 0)" style="fill:#fff"/><circle cx="279" cy="260.86" r="169" style="fill:#ffa826"/><path d="M279.44,92.34c-2.56,0-5.11.07-7.64.18a169,169,0,0,1-7.16,337.17c4.88.42,9.81.65,14.8.65a169,169,0,0,0,0-338Z" transform="translate(0 0)" style="isolation:isolate;opacity:0.20000000298023224"/><path d="M279.5,79.87a5.5,5.5,0,0,0-5.5,5.5v24a5.5,5.5,0,0,0,11,0v-24A5.51,5.51,0,0,0,279.5,79.87Z" transform="translate(0 0)" style="fill:#fff"/><path d="M389.33,112.36c-1.55-1.16-3.13-2.29-4.72-3.39a5.48,5.48,0,0,0-4.9,2.39L366.2,131.19a5.5,5.5,0,1,0,9.09,6.19l13.51-19.83A5.49,5.49,0,0,0,389.33,112.36Z" transform="translate(0 0)" style="fill:#fff"/><path d="M450.71,202.78a5.5,5.5,0,0,0-7.16-3h0l-22.24,9A5.5,5.5,0,1,0,425.45,219h0l22.24-9A5.51,5.51,0,0,0,450.71,202.78Z" transform="translate(0 0)" style="fill:#fff"/><path d="M191.8,131.19l-13.51-19.83a5.49,5.49,0,0,0-4.9-2.39c-1.59,1.1-3.17,2.23-4.72,3.39a5.44,5.44,0,0,0,.53,5.19l13.51,19.83a5.5,5.5,0,1,0,9.09-6.19Z" transform="translate(0 0)" style="fill:#fff"/><path d="M136.69,208.79l-22.24-9A5.5,5.5,0,1,0,110.31,210l22.24,9a5.5,5.5,0,0,0,4.14-10.19Z" transform="translate(0 0)" style="fill:#fff"/><path d="M279.5,406.87a5.5,5.5,0,0,0-5.5,5.5v24a5.5,5.5,0,0,0,11,0v-24A5.51,5.51,0,0,0,279.5,406.87Z" transform="translate(0 0)" style="fill:#fff"/><path d="M388.8,404.19l-13.51-19.83a5.5,5.5,0,1,0-9.09,6.19l13.51,19.83a5.52,5.52,0,0,0,4.9,2.39c1.59-1.1,3.17-2.23,4.72-3.39A5.48,5.48,0,0,0,388.8,404.19Z" transform="translate(0 0)" style="fill:#fff"/><path d="M447.69,311.79l-22.24-9A5.5,5.5,0,1,0,421.31,313h0l22.24,9a5.5,5.5,0,0,0,4.14-10.19Z" transform="translate(0 0)" style="fill:#fff"/><path d="M190.35,382.91a5.5,5.5,0,0,0-7.64,1.45L169.2,404.19a5.43,5.43,0,0,0-.53,5.19c1.55,1.16,3.13,2.29,4.72,3.39a5.53,5.53,0,0,0,4.9-2.39l13.51-19.83a5.5,5.5,0,0,0-1.45-7.64Z" transform="translate(0 0)" style="fill:#fff"/><path d="M139.71,305.78a5.5,5.5,0,0,0-7.16-3h0l-22.24,9A5.5,5.5,0,1,0,114.45,322l22.24-9A5.51,5.51,0,0,0,139.71,305.78Z" transform="translate(0 0)" style="fill:#fff"/><path d="M286.63,258.14a11.5,11.5,0,0,1-9.4,13.26L179.63,288a11.5,11.5,0,1,1-3.86-22.67l97.6-16.6A11.5,11.5,0,0,1,286.63,258.14Z" transform="translate(0 0)" style="fill:#3f3d56"/><path d="M389.35,366.27a7.51,7.51,0,0,1-10.6,0L273.68,262.07a7.5,7.5,0,1,1,10.57-10.65L389.31,355.66A7.5,7.5,0,0,1,389.35,366.27Z" transform="translate(0 0)" style="fill:#3f3d56"/><circle cx="279" cy="260.86" r="13" style="fill:#ccc"/><path d="M189.45,35.44c-19.95,31.38-50.4,52.2-87.95,65.88a7.06,7.06,0,0,1-9.88-1.42h0c-20.39-27.24-15.79-66.16,11.13-87a62.08,62.08,0,0,1,87.06,11.22l.5.66.56.75A7.05,7.05,0,0,1,189.45,35.44Z" transform="translate(0 0)" style="fill:#e6e6e6"/><path d="M367.69,24.81a62.07,62.07,0,0,1,86.9-12.37l.66.49c26.91,20.81,31.52,59.73,11.12,87h0a7.06,7.06,0,0,1-9.88,1.42h0C421.63,88,393.05,64.88,368.54,35.44a7.06,7.06,0,0,1-1.42-9.88Z" transform="translate(0 0)" style="fill:#e6e6e6"/><path d="M358.94,447.13a5.51,5.51,0,0,0-2.11,7.49l31.74,56.72a5.5,5.5,0,0,0,9.6-5.37l-31.74-56.72A5.52,5.52,0,0,0,358.94,447.13Z" transform="translate(0 0)" style="fill:#e6e6e6"/><path d="M191.57,449.25,159.83,506a5.5,5.5,0,1,0,9.6,5.37l31.74-56.72a5.5,5.5,0,1,0-9.6-5.37Z" transform="translate(0 0)" style="fill:#e6e6e6"/><circle cx="395" cy="508.86" r="17" style="fill:#e6e6e6"/><circle cx="407" cy="73.86" r="17" style="fill:#e6e6e6"/><circle cx="278" cy="33.86" r="17" style="fill:#e6e6e6"/><circle cx="155" cy="71.86" r="17" style="fill:#e6e6e6"/><circle cx="166" cy="508.86" r="17" style="fill:#e6e6e6"/><path d="M381.66,356.71a8.52,8.52,0,0,0,11.76,2.59,8.21,8.21,0,0,0,1.19-.92l26.68,14.3L419.86,357l-25.11-11.18a8.57,8.57,0,0,0-13.09,10.87Z" transform="translate(0 0)" style="fill:#ffb7b7"/><path d="M401.1,362.17l10.45-14.43,50.36,23.81,62.67-11.76A21.49,21.49,0,0,1,550,380.85h0a21.49,21.49,0,0,1-21.43,21.51l-71.82.14Z" transform="translate(0 0)" style="fill:#3f3d56"/><polygon points="385 611.4 374.42 606.34 388.95 562.13 404.56 569.6 385 611.4" style="fill:#ffb7b7"/><path d="M455.91,604.27c-.77.48-1.54,1-2.32,1.43q-2.32,1.42-4.67,2.8l-2.36,1.37v0h-.06l-1.2.3-1.72-4.54-.79-2.09-1.12-3-2.05-5.41-10.8-28.51,16.79-4.14.63,2.57h0l.31,1.27,5.86,23.79,1.2,4.86,0,.15.72,2.91.62,2.51.7,2.82Z" transform="translate(0 0)" style="fill:#ffb7b7"/><path d="M556.05,504.15c-1.06,1.71-2.15,3.41-3.24,5.09q-3.06,4.71-6.27,9.28h0a21.77,21.77,0,0,1-4.12,3,2,2,0,0,1-.19.12,15.35,15.35,0,0,1-3.47,1.39l-1.31.32c-1.57.38-3.12.7-4.67,1-2.75.49-5.47.83-8.17,1l-.65.06c-11.12.81-21.94-.5-33.24-2.65-5.58-1.06-11.27-2.33-17.17-3.64l-5.81-1.29-.46-.1c-2.8-.61-5.64-1.22-8.56-1.82q-5.49-1.12-11.38-2.17l.28,5.54a41.5,41.5,0,0,0,2.63,12.45c1.68,4.91,3,8.79.2,16.88l-1.35,3.92a13.36,13.36,0,0,1-1.38,11.83l-.27.41,11.27,28.52.73,1.85h-24.9l-17.37-34.84-.83-1.66v-.09l1.8-66.94c0-.59.07-1.19.14-1.78a20.33,20.33,0,0,1,7.75-13.7,19.65,19.65,0,0,1,14.6-4l5.94.77,12.14,1.57,8.56,1.11.17,0,25.22,3.26,1.81-7.38.34-.12,10.62-3.9,36.73-13.46.09,0,2.42-.89.28.47c.09.14.17.28.25.42A72.35,72.35,0,0,1,551,467.51a210.15,210.15,0,0,1,6.09,23.28c.07.34.14.66.19.93l0,.09c0,.13,0,.22.05.24C558.2,495.58,557.61,499.88,556.05,504.15Z" transform="translate(0 0)" style="fill:#2f2e41"/><path d="M557.6,479.48a14.93,14.93,0,0,0-.42-1.49,106.32,106.32,0,0,0-4.3-10.9c-1.83-4-4-8.36-6.65-13q-1.9-3.41-4.09-7.08c-.73-1.22-1.48-2.47-2.27-3.75l-.1-.17-.23-.37-36.34,4.86-13.53,1.81-.81,6.75-.2,1.67h0l-.54,4.56h0l-.72,6h-.06l-20.09-2.6-20.69-2.68-11.12-1.44a19.61,19.61,0,0,0-14.6,4,20.38,20.38,0,0,0-7.74,13.71c-.07.54-.12,1.1-.14,1.65l-10.49,24.85a160.52,160.52,0,0,0-11.86,46.65L382.92,577l1.1.11,16.3,1.51,4.3.4,9.48-13.83c1.08-1.58,2.11-3.2,3.06-4.87a74.16,74.16,0,0,0,4.19-8.42l20.5-48.78c1.58.27,3.15.53,4.71.77q10.77,1.76,20.69,2.85c21.5,2.4,40.11,2.59,56.68.56q7-.85,13.5-2.24,2.39-.51,4.71-1.08c.37-.09.73-.17,1.08-.27a19.81,19.81,0,0,0,13.87-12.95A20.2,20.2,0,0,0,557.6,479.48Z" transform="translate(0 0)" style="fill:#2f2e41"/><path d="M388.38,604.18l-11.45-5.48-1.79-.87-2.87,7-20,4.41a4.75,4.75,0,0,0-.78,9l19.56,8,6.2-5.59-1.52,7.5,7.37,3,8.07-25.69Z" transform="translate(0 0)" style="fill:#2f2e41"/><polygon points="458.7 593.34 459.43 595.19 458.7 595.19 458.7 593.34" style="fill:#2f2e41"/><path d="M454.72,595.58l-12,4.16-1.88.65,2.91,7-11.12,17.21a4.75,4.75,0,0,0,5.81,7L458,623.5l.48-8.34,4.2,6.4,7.35-3-12.35-23.93Z" transform="translate(0 0)" style="fill:#2f2e41"/><path d="M554.61,490.73a4.39,4.39,0,0,1-2-.5L489.3,457.16l-.73-3-1.38-9.47,0-.09,6-27.74c-.11-.24-.34-.63-.6-1.07-2.68-4.56-10.86-18.41,4.74-37.48l27.4-31.94,23.51-1,.27.34A61.23,61.23,0,0,1,559,402.59l-2.45,44.22,2.63,8.93a24.68,24.68,0,0,1-.72,15.94l.6,14.46a4.42,4.42,0,0,1-4.24,4.59Z" transform="translate(0 0)" style="fill:#3f3d56"/><path d="M499.73,527.2a8.52,8.52,0,0,0,3-11.67,8.78,8.78,0,0,0-.88-1.22l15.22-26.16-15.71.89-12,24.7a8.57,8.57,0,0,0,10.4,13.46Z" transform="translate(0 0)" style="fill:#ffb7b7"/><path d="M505.87,508,491.81,497l25.54-49.5-9.57-63a21.47,21.47,0,0,1,18-24.45,22.43,22.43,0,0,1,3.93-.23h0A21.5,21.5,0,0,1,550.47,382l-2.37,71.78Z" transform="translate(0 0)" style="fill:#3f3d56"/><path id="f4e08e8b-ef08-4d70-8ad3-b81af8a71ff9-323" d="M509.68,333.1V309.84a31.18,31.18,0,1,1,62.35,0h0v0c5.5,11.45,2.06,16.89,0,23.26a4.19,4.19,0,0,1-4.18,4.19h-54A4.18,4.18,0,0,1,509.68,333.1Z" transform="translate(0 0)" style="fill:#2f2e41"/><circle cx="530.63" cy="312.44" r="23.34" transform="translate(137.23 786.17) rotate(-80.78)" style="fill:#ffb7b7"/><path d="M555.06,318.56l-.64-.11c-3.64-.65-7.28-1.28-10.91-1.94l-.33-8.23-4.4,7.37c-10,3.33-19.41,1.45-28.24-2.7a78.24,78.24,0,0,1-8.46-4.67,30.92,30.92,0,0,1,15.19-21.88l1-.53s0,0,0,0h0c.57-.26,1.15-.52,1.73-.75a25.69,25.69,0,0,1,27,5.23C554.11,297.14,557.32,308.37,555.06,318.56Z" transform="translate(0 0)" style="fill:#2f2e41"/></svg>