<svg xmlns="http://www.w3.org/2000/svg" viewBox="0 0 840.29 742.48"><g id="Layer_2" data-name="Layer 2"><g id="Layer_1-2" data-name="Layer 1"><path d="M166,404.32H15.67A15.69,15.69,0,0,1,0,388.65V208.14a15.7,15.7,0,0,1,15.67-15.68H166a15.71,15.71,0,0,1,15.68,15.68V388.65A15.7,15.7,0,0,1,166,404.32ZM15.67,194.46A13.69,13.69,0,0,0,2,208.14V388.65a13.68,13.68,0,0,0,13.67,13.67H166a13.68,13.68,0,0,0,13.68-13.67V208.14A13.7,13.7,0,0,0,166,194.46Z" style="fill:#3f3d56"/><path d="M125.94,207.3H55.68a12.52,12.52,0,0,1-12.5-12.5v-2.67a12.51,12.51,0,0,1,12.5-12.5h70.26a12.51,12.51,0,0,1,12.5,12.5v2.67A12.52,12.52,0,0,1,125.94,207.3Z" style="fill:#ccc"/><path d="M159.73,305.51H21.9a7.12,7.12,0,1,1,0-14.23H159.73a7.12,7.12,0,0,1,0,14.23Z" style="fill:#5abdb2"/><path d="M159.73,335.74H21.9a7.12,7.12,0,1,1,0-14.23H159.73a7.12,7.12,0,0,1,0,14.23Z" style="fill:#5abdb2"/><path d="M122.83,275.27h-64a7.11,7.11,0,0,1,0-14.22h64a7.11,7.11,0,1,1,0,14.22Z" style="fill:#5abdb2"/><path d="M485.19,224.7H334.91A15.69,15.69,0,0,1,319.24,209V28.51a15.69,15.69,0,0,1,15.67-15.67H485.19a15.69,15.69,0,0,1,15.67,15.67V209A15.69,15.69,0,0,1,485.19,224.7ZM334.91,14.84a13.68,13.68,0,0,0-13.67,13.67V209a13.68,13.68,0,0,0,13.67,13.67H485.19A13.69,13.69,0,0,0,498.86,209V28.51a13.68,13.68,0,0,0-13.67-13.67Z" style="fill:#3f3d56"/><path d="M445.18,27.68H374.92a12.52,12.52,0,0,1-12.5-12.5V12.5A12.52,12.52,0,0,1,374.92,0h70.26a12.52,12.52,0,0,1,12.5,12.5v2.68A12.52,12.52,0,0,1,445.18,27.68Z" style="fill:#ccc"/><path d="M479,125.88H341.13a7.12,7.12,0,0,1,0-14.23H479a7.12,7.12,0,1,1,0,14.23Z" style="fill:#5abdb2"/><path d="M479,156.12H341.13a7.12,7.12,0,0,1,0-14.23H479a7.12,7.12,0,1,1,0,14.23Z" style="fill:#5abdb2"/><path d="M442.06,95.65H378a7.12,7.12,0,1,1,0-14.23h64a7.12,7.12,0,0,1,0,14.23Z" style="fill:#5abdb2"/><path d="M791.79,528.84l-132,71.92a15.69,15.69,0,0,1-21.26-6.26L552.19,436a15.69,15.69,0,0,1,6.26-21.26l132-71.91a15.69,15.69,0,0,1,21.26,6.26l86.38,158.5A15.69,15.69,0,0,1,791.79,528.84ZM559.41,416.49A13.67,13.67,0,0,0,554,435l86.38,158.51A13.69,13.69,0,0,0,658.88,599l132-71.91a13.69,13.69,0,0,0,5.47-18.55L709.91,350a13.68,13.68,0,0,0-18.54-5.47Z" style="fill:#3f3d56"/><path d="M662.38,375l-61.7,33.62a12.51,12.51,0,0,1-16.95-5l-1.28-2.35a12.51,12.51,0,0,1,5-17l61.69-33.62a12.52,12.52,0,0,1,17,5l1.28,2.36A12.51,12.51,0,0,1,662.38,375Z" style="fill:#ccc"/><path d="M739,445.06,618,511a7.11,7.11,0,0,1-6.83-12.48h0l121-66a7.12,7.12,0,0,1,6.81,12.5Z" style="fill:#ccc"/><path d="M753.51,471.6l-121,66a7.11,7.11,0,1,1-6.83-12.48h0l121-66a7.11,7.11,0,0,1,6.81,12.49Z" style="fill:#ccc"/><path d="M692.17,436.17,636,466.81a7.12,7.12,0,1,1-6.82-12.49h0l56.22-30.64a7.11,7.11,0,0,1,6.83,12.48Z" style="fill:#ccc"/><rect x="203.93" y="183.74" width="81.28" height="2" transform="translate(-59.7 147.78) rotate(-30.14)" style="fill:#3f3d56"/><polygon points="282.19 174.43 292.12 157.13 272.18 157.18 282.19 174.43" style="fill:#3f3d56"/><path d="M487.23,431.94a1,1,0,0,1-.45-.11L216.63,293.06a1,1,0,1,1,.91-1.78L487.69,430.05a1,1,0,0,1-.46,1.89Z" style="fill:#3f3d56"/><polygon points="480.08 438.48 500 437.5 489.19 420.74 480.08 438.48" style="fill:#3f3d56"/><path d="M766,546.68a10.74,10.74,0,0,1-4.83-14.4,11.14,11.14,0,0,1,1-1.62l-8-78.54h17.36l6.38,76.69A10.8,10.8,0,0,1,766,546.68Z" style="fill:#a0616a"/><circle cx="750.03" cy="384.22" r="24.56" style="fill:#a0616a"/><path d="M744.45,497.76l-36.66-8a4.51,4.51,0,0,1-3.54-4.16c-.42-8.18-.72-29.34,5.58-49.1a29.75,29.75,0,0,1,37.42-19.22l.8.27h0a29.77,29.77,0,0,1,18.22,37.95,32,32,0,0,1-1.31,3.14c-8.13,16.7-13.25,28.78-15.22,35.93A4.49,4.49,0,0,1,744.45,497.76Z" style="fill:#5abdb2"/><polygon points="709.91 731.09 697.65 731.09 691.82 683.8 709.91 683.8 709.91 731.09" style="fill:#a0616a"/><path d="M688.9,727.59h23.64v14.88H674a14.88,14.88,0,0,1,14.89-14.88Z" style="fill:#2f2e41"/><polygon points="832.5 715.2 821.76 721.11 793.87 682.48 809.72 673.76 832.5 715.2" style="fill:#a0616a"/><path d="M812.4,722.26l20.72-11.39h0l7.17,13h0l-33.76,18.57h0a14.88,14.88,0,0,1,5.87-20.22Z" style="fill:#2f2e41"/><path d="M710.14,704.83l-18.88-1.45a4.48,4.48,0,0,1-4.13-4c-2.69-28.06-14.49-170.23,17.43-214l.08-.12.15-.06c.28-.1,28.75-10.25,45.08,8.35a4.53,4.53,0,0,1,.87,4.38l-.63,1.87a3.49,3.49,0,0,0,.5,3.17c4.53,6.13,19.78,29.72,25.78,76.13a3.32,3.32,0,0,0,.23.86l44.26,108.74a4.5,4.5,0,0,1-2.47,5.86l-.1,0-13.92,5.3a4.52,4.52,0,0,1-5.55-2l-63.9-115.93a2.5,2.5,0,0,0-4.66.88L714.94,700.92a4.49,4.49,0,0,1-4.45,3.92Z" style="fill:#2f2e41"/><path d="M654.55,412.75a11.38,11.38,0,0,1,.24,1.64l43,24.78,10.44-6,11.13,14.57-17.45,12.44a8,8,0,0,1-9.6-.23L648,425a10.5,10.5,0,1,1,6.2-13.49,9.44,9.44,0,0,1,.38,1.25Z" style="fill:#a0616a"/><path d="M698.34,436.69a4.49,4.49,0,0,1,2.21-3l19.71-11a12.5,12.5,0,0,1,15.33,19.74l-15.72,16.32a4.5,4.5,0,0,1-6.36.12,4.06,4.06,0,0,1-.44-.49l-13.89-18A4.45,4.45,0,0,1,698.34,436.69Z" style="fill:#5abdb2"/><path d="M749.36,470.68a4.53,4.53,0,0,1-1.66-3.36L747,444.75a12.5,12.5,0,0,1,24.58-4.52l7.25,21.47a4.49,4.49,0,0,1-2.82,5.7,4.64,4.64,0,0,1-.64.17l-22.37,4A4.53,4.53,0,0,1,749.36,470.68Z" style="fill:#5abdb2"/><path d="M746.15,378.57c-6.32,4.32-14.6,8.76-21,4.16-4.24-3-5.57-8.62-3.85-13.53,3.08-8.82,11.57-12.71,19.68-15.69,10.54-3.87,22-6.95,32.91-4.18s20.5,13.31,18.54,24.37c-1.58,8.9-10,16.3-8.78,25.25s11.33,13.76,20.28,15.37,19,2.13,25.39,8.55c8.21,8.2,6.16,22.86-1.56,31.51S808.34,467,797.05,469.63c-14.95,3.54-31.12,5.39-45.33-.47s-25.25-21.66-21.14-36.46c1.74-6.26,5.83-11.54,9.79-16.69s8-10.52,9.47-16.84c1.26-5.26.33-11.36-3.16-15.31a4.44,4.44,0,0,1-.59-5.19Z" style="fill:#2f2e41"/></g></g></svg>